  <svg xmlns="http://www.w3.org/2000/svg" fill="none" viewBox="0 0 280 280">
      <mask id="avatarsRadiusMask">
        <rect width="280" height="280" fill="#fff" rx="0" ry="0"></rect>
      </mask>
      <g mask="url(#avatarsRadiusMask)">
        <path
          fill="#FFDBB4"
          d="M100 0C69.072 0 44 25.072 44 56v6.166c-5.675.952-10 5.888-10 11.834v14c0 6.052 4.48 11.058 10.305 11.881 2.067 19.806 14.458 36.541 31.695 44.73V163h-4c-39.764 0-72 32.236-72 72v9h200v-9c0-39.764-32.236-72-72-72h-4v-18.389c17.237-8.189 29.628-24.924 31.695-44.73C161.52 99.058 166 94.052 166 88V74c0-5.946-4.325-10.882-10-11.834V56c0-30.928-25.072-56-56-56z"
          transform="translate(40 36)"
        ></path>
        <path
          fill="#000"
          fillOpacity="0.1"
          d="M76 144.611v8A55.79 55.79 0 00100 158a55.789 55.789 0 0024-5.389v-8A55.789 55.789 0 01100 150a55.79 55.79 0 01-24-5.389z"
          transform="translate(40 36)"
        ></path>
        <path
          fill="#5199E4"
          d="M132.5 54c18.502 0 33.5-9.626 33.5-21.5a14.08 14.08 0 00-.376-3.232C202.76 32.138 232 63.18 232 101.052V110H32v-8.948c0-38.217 29.775-69.48 67.393-71.855A14.108 14.108 0 0099 32.5C99 44.374 113.998 54 132.5 54z"
          transform="translate(8 170)"
        ></path>
        <path
          fill="#fff"
          fillRule="evenodd"
          d="M71.764 15.26c1.59-.184 4.784-.552 5.196.975.302 1.091-1.165 2.077-2.263 2.815-.336.226-.637.428-.843.604l-.164.139c-1.456 1.241-2.965 2.528-4.661 3.408a12.85 12.85 0 01-2.926 1.083c-.279.07-.434.107-.55.196-.148.112-.235.305-.43.739l-.037.082c-.45 1.001-.721 2.18-.993 3.363-.234 1.016-.468 2.035-.818 2.95-1.704 4.453-5.767 14.8-12.267 10.258-1.707-1.193-2.774-3.31-3.75-5.244-.206-.41-.408-.81-.61-1.192-1.335-2.512-2.613-5.508-3.381-8.25a10.342 10.342 0 01-.206-.912c-.13-.683-.2-1.048-.923-1.503-.37-.233-.893-.363-1.403-.49-.35-.088-.695-.174-.981-.29-1.5-.61-2.813-1.436-4.088-2.43-1.238-.966-6.11-4.951-2.132-5.691 1.804-.336 4.16-.217 6.001-.124l.066.004c2.027.102 4.073.57 5.877 1.535l.012.007c.89.477 1.22.654 1.545.646.19-.005.379-.074.679-.182.236-.086.542-.197.973-.322-3.322-1.125-6.649-2.997-8.884-5.78-1.207-1.503-4-7.654-1.9-9.065 1.791-1.206 2.415 2.005 2.881 4.4.19.975.353 1.814.558 2.167 1.24 2.136 3.281 3.236 5.32 4.336.58.313 1.161.626 1.723.963-1.741-1.668-3.04-3.505-3.674-5.868l-.08-.294c-.315-1.143-.903-3.28-.439-4.192.529-1.04 1.772-1.106 2.458-.22.41.529.48 1.514.542 2.399.031.448.06.87.132 1.192.35 1.589.921 2.81 1.982 4.04 1.505 1.746 3.417 3.175 5.669 3.727 5.127 1.259 6.92-4.107 7.608-8.244.04-.243.056-.523.074-.817.054-.932.117-1.992.976-2.362 1.367-.589 1.896.746 1.936 1.781.087 2.314-1.056 5.857-2.166 7.845 2.79-1.732 5.003-4.478 5.899-7.688.105-.378.15-.905.197-1.468.103-1.205.22-2.58.977-3.035 1.54-.924 2.029.917 1.975 2.022-.319 6.515-5.298 12.44-11.488 14.069.21.105.388.2.542.28.954.505.989.524 2.306-.257a13.03 13.03 0 012.827-1.23c1.47-.452 3.055-.682 4.58-.817.146-.012.331-.034.546-.059zM58.86 24.62c-.067 3.271-3.238 3.04-2.822.095.326-2.311 3.681-2.233 2.822-.095zm-1.93 9.016c-.49 1.56-4.332 2.121-3.895-.17.369-1.942 4.554-2.026 3.895.17zM51.703 27c-2.82 0-1.895-4.875.996-3.861 2.275.796 1.327 3.861-.996 3.861z"
          clipRule="evenodd"
          transform="translate(8 170) translate(77 58)"
        ></path>
        <path
          fill="#000"
          fillOpacity="0.7"
          fillRule="evenodd"
          d="M35.118 15.128C36.176 24.62 44.226 32 54 32c9.804 0 17.874-7.426 18.892-16.96.082-.767-.775-2.04-1.85-2.04H37.088c-1.08 0-2.075 1.178-1.97 2.128z"
          clipRule="evenodd"
          transform="translate(86 134)"
        ></path>
        <path
          fill="#fff"
          d="M70 13H39a5 5 0 005 5h21a5 5 0 005-5z"
          transform="translate(86 134)"
        ></path>
        <path
          fill="#FF4F6D"
          d="M66.694 27.138A10.964 10.964 0 0059 24c-1.8 0-3.5.433-5 1.2-1.5-.767-3.2-1.2-5-1.2-2.995 0-5.71 1.197-7.693 3.138A18.93 18.93 0 0054 32c4.88 0 9.329-1.84 12.694-4.862z"
          transform="translate(86 134)"
        ></path>
        <g>
          <path
            fill="#000"
            fillOpacity="0.16"
            fillRule="evenodd"
            d="M16 8c0 4.418 5.373 8 12 8s12-3.582 12-8"
            clipRule="evenodd"
            transform="translate(112 122)"
          ></path>
        </g>
        <g>
          <path
            fill="#000"
            fillOpacity="0.6"
            fillRule="evenodd"
            d="M16.16 22.447C18.007 18.648 22.164 16 26.998 16c4.816 0 8.961 2.63 10.817 6.407.552 1.122-.233 2.04-1.024 1.36-2.451-2.107-5.932-3.423-9.793-3.423-3.74 0-7.124 1.235-9.56 3.228-.891.728-1.818-.014-1.278-1.125zm58 0C76.007 18.648 80.164 16 84.998 16c4.816 0 8.961 2.63 10.817 6.407.552 1.122-.233 2.04-1.024 1.36-2.451-2.107-5.932-3.423-9.793-3.423-3.74 0-7.124 1.235-9.56 3.228-.891.728-1.818-.014-1.278-1.125z"
            clipRule="evenodd"
            transform="translate(84 90)"
          ></path>
        </g>
        <g>
          <path
            fill="#000"
            fillOpacity="0.6"
            fillRule="evenodd"
            d="M22.766 1.578l.911-.402C28.92-.905 36.865-.033 41.723 2.299c.567.272.18 1.153-.402 1.108-14.919-1.151-24.963 8.146-28.375 14.44-.101.187-.407.208-.482.034-2.308-5.319 4.45-13.985 10.302-16.303zm66.468 0l-.911-.402C83.08-.905 75.135-.033 70.277 2.299c-.567.272-.18 1.153.402 1.108 14.919-1.151 24.963 8.146 28.375 14.44.101.187.407.208.483.034 2.307-5.319-4.45-13.985-10.303-16.303z"
            clipRule="evenodd"
            transform="translate(84 82)"
          ></path>
        </g>
        <g>
          <path
            fill="#000"
            fillOpacity="0.16"
            fillRule="evenodd"
            d="M69.033 76.213c12.938-33.084 26.613-49.626 41.025-49.626.539 0 29.253-.238 48.055-.36C178.767 35.585 193 55.304 193 78.115V93h-82.942l-2.805-23.18L103.374 93H69V78.115c0-.637.011-1.27.033-1.902z"
            clipRule="evenodd"
            transform="translate(7)"
          ></path>
          <path
            fill="#724133"
            d="M40 145c-.085-18.985 30.32-97.205 41-110 7.923-9.491 27.695-15.45 52-15 24.305.45 44.862 3.812 53 14 12.324 15.428 40.085 92.015 40 111-.099 21.266-9.622 33.59-18.609 45.221-1.494 1.933-2.972 3.847-4.391 5.779-10.279-2.665-27.854-5.184-46-6.682v-8.707c18.92-8.988 32-28.272 32-50.611V92a56.96 56.96 0 00-.14-4h-76.802l-2.805-21.444L105.374 88H77.141a56.837 56.837 0 00-.14 4v38c0 22.339 13.08 41.623 31.999 50.611v8.707c-18.145 1.498-35.72 4.017-46 6.682-1.418-1.932-2.896-3.845-4.39-5.777v-.002C49.623 178.591 40.1 166.266 40 145z"
            transform="translate(7)"
          ></path>
        </g>
      </g>
    </svg>